<svg xmlns="http://www.w3.org/2000/svg" version="1.1" xmlns:xlink="http://www.w3.org/1999/xlink" xmlns:svgjs="http://svgjs.dev/svgjs" width="1000" height="1125" viewBox="0 0 1000 1125"><g transform="matrix(1,0,0,1,1.7053025658242404e-13,0)"><svg viewBox="0 0 320 360" data-background-color="#f4eef6" preserveAspectRatio="xMidYMid meet" height="1125" width="1000" xmlns="http://www.w3.org/2000/svg" xmlns:xlink="http://www.w3.org/1999/xlink"><defs></defs><g id="tight-bounds" transform="matrix(1,0,0,1,0,0)"><svg viewBox="0 0 320 360" height="360" width="320"><g><svg></svg></g><g><svg viewBox="0 0 320 360" height="360" width="320"><g><path d="M20.961 227.22l3.726 4.658-1.863-6.056c-0.466-2.795-3.726 0.466-1.863 1.398M25.153 224.425c1.397 2.329 2.795 4.658 2.795 6.987 0 3.261 2.795 4.658 5.123 5.589-3.261-3.726-5.124-13.974-7.918-12.576M204.017 26.929c7.918 0 15.371-0.932 23.756 0.931 20.495 5.124 37.729 15.371 49.374 29.811l32.606 52.169c1.397 13.042 4.192 27.482 3.726 43.319 3.261 0 2.795-4.658 6.521-5.59-3.726 9.316-5.59 20.961-6.521 34.469-2.329-7.453 0-18.632 0.466-24.687-3.261 5.124-5.124 1.397-5.124-0.932 0.466-3.726-1.397-3.261-2.795-4.658-5.124-4.658-8.384-9.782-12.11-17.7 2.329-6.055 2.795-14.905-4.658-19.563-2.329-1.397-5.124-3.726-6.521-7.453-1.863-5.124-5.124-11.179-4.193-19.097 0.466-2.329-6.987 5.124-11.179 1.863-18.166-12.576-36.332-27.016-58.224-39.127-11.645 0-20.029-4.192-24.221-9.316-3.726-4.658-0.932-10.713 4.658-11.179 3.261 0 6.987-0.932 9.782 0.932 0.466-1.863 2.329-4.192 4.657-4.192M157.904 16.215l0.932 0.466c4.658 0.932 6.987 7.453 12.11 5.124 0 3.261 0.466 6.521-0.466 8.85-1.397 3.726-5.59 3.726-8.85 3.726-31.208-1.863-49.374 11.179-68.471 22.358-5.124 3.261-10.713 5.59-14.906 9.782-20.029 18.632-41.921 35.866-47.045 70.335l-4.192 38.195c-0.466 4.192-5.124 8.384-4.192 13.508l3.26 22.824c-3.261-3.261-5.124 0.932-4.192 2.795 0.466 1.397 2.329 6.055 5.124 1.863 3.726 6.987 7.453 20.495 12.576 26.55 15.837 18.632 36.332 35.4 53.101 52.169 4.192-0.932 7.453-0.932 8.384-3.727 1.397 2.795-1.397 5.59-3.726 6.056 7.453 4.658 15.837 8.85 27.016 9.781 14.44 0.932 27.948 3.261 40.524 6.522 6.521-1.863 13.042-2.795 20.029-3.261 2.329 0 3.726-3.726 6.521-4.658l0.466-4.658c2.795 4.192 2.329-1.397 0.466-4.192 3.261 2.795 4.192 5.124 5.589 6.987 0-1.397 3.726-6.521 3.727-0.466l0.931-6.055c1.397-0.932 1.863 5.124 3.261 0.931 1.397-4.192 4.192-0.932 6.987-2.329-0.932 1.863-0.466 5.59 2.794 3.261l3.727-3.261c2.329 5.59 6.055 3.261 7.918 2.329 20.495-13.042 40.99-28.413 60.553-43.784l-0.466 6.055 2.329-7.453c2.329 2.329 4.192 0.466 5.124-0.931 2.795-4.658 6.521-9.316 12.577-13.508-7.453 20.029-16.303 35.866-27.482 48.908l-4.658 5.59c0 3.261-0.932 7.453-4.658 7.918-1.863 0.466-5.59-0.932-8.384 1.863-1.397 1.863 3.261 5.59-0.466 2.795-3.261-2.329-6.521 0-10.248 0.932-2.795 0.932 1.863 3.726 2.795 5.589 0.932 1.863 1.863 3.726 1.398 6.056l-5.124-5.59c-6.055 3.261-9.782 9.316-14.906 13.974-2.329 1.863-1.397 5.124-1.397 7.918-3.261 0-6.987-0.932-8.85 0.932-1.397 1.863-0.932 4.658-0.932 7.453-4.658-0.466-5.124-7.453-9.315-6.056-4.192 0.932-8.85 1.397-12.577 3.727 2.795 5.59-4.658 2.329-3.726 3.26-6.987-4.192-13.042-7.453-20.495-4.658-15.837-5.124-35.4-2.795-49.84-0.931 0-2.329 0.466-4.658-0.466-5.124-0.932 2.329-3.726 1.397-3.26 1.397-8.85-6.055-17.7-9.782-27.016-14.905-8.384 0.932-16.303-3.261-18.632-5.59-6.521-6.055-13.974-2.795-20.029-4.192-13.042-3.261-17.7-16.769-19.098-26.084-0.932-4.658-4.658-6.521-6.055-6.056-6.055-19.563-15.371-37.263-22.824-55.429-1.863-4.658-1.397-9.316-1.397-14.44 2.329 0.932 4.658 0.466 4.192-2.794-2.329-15.371-7.918-27.016-13.974-38.195 3.261-15.837 3.726-34.469 11.179-48.443 6.521-12.576 18.632-19.098 27.016-29.811 2.795-3.726 2.795-8.85 5.59-12.11 9.316-9.316 18.632-19.098 28.879-27.482 4.658-3.726 10.247 0 17.234-1.397 2.329-8.384 11.645-15.837 20.495-13.508 3.726 0.932 11.179-8.85 13.508-9.782 3.726-1.397 1.863 3.726 1.863 6.987 8.85-6.987 20.961-10.713 32.14-14.906" fill="#1d4aaa" data-fill-palette-color="tertiary"></path></g><g transform="matrix(1,0,0,1,64,153.65404607862504)"><svg viewBox="0 0 192 52.6919078427499" height="52.6919078427499" width="192"><g><svg viewBox="0 0 192 52.6919078427499" height="52.6919078427499" width="192"><g><svg viewBox="0 0 192 52.6919078427499" height="52.6919078427499" width="192"><g><svg viewBox="0 0 192 52.6919078427499" height="52.6919078427499" width="192"><g><svg viewBox="0 0 192 52.6919078427499" height="52.6919078427499" width="192"><g><svg viewBox="0 0 192 52.6919078427499" height="52.6919078427499" width="192"><g transform="matrix(1,0,0,1,0,0)"><svg width="192" viewBox="0.699999988079071 -34.25 126.54000091552734 34.72999954223633" height="52.6919078427499" data-palette-color="#1d4aaa"><path d="M19-34.1L19-34.1 30.3-9Q31.45-6.65 32.1-5.43 32.75-4.2 33.33-3.8 33.9-3.4 34.6-3.3L34.6-3.3Q34.8-2.65 34.9-1.78 35-0.9 35 0.15L35 0.15Q34.1 0.05 32.7 0.03 31.3 0 29.9 0 28.5 0 27.7 0L27.7 0Q27.1 0 26.03 0 24.95 0 23.73 0.03 22.5 0.05 21.4 0.08 20.3 0.1 19.7 0.15L19.7 0.15Q19.7-1.05 19.8-1.85 19.9-2.65 20.1-3.3L20.1-3.3Q21.85-3.65 22.18-4.48 22.5-5.3 21.7-7.15L21.7-7.15 17.2-17.4Q16.05-20.05 15.33-22.33 14.6-24.6 14.1-26.8L14.1-26.8 15.55-26.8Q14.95-24.55 14.23-22.25 13.5-19.95 12.45-17.45L12.45-17.45 8.65-7.55Q8-5.95 8.4-4.75 8.8-3.55 10.5-3.3L10.5-3.3Q10.7-2.6 10.8-1.75 10.9-0.9 10.9 0.15L10.9 0.15Q10.35 0.1 9.35 0.08 8.35 0.05 7.28 0.03 6.2 0 5.35 0L5.35 0Q4.1 0 2.78 0.03 1.45 0.05 0.7 0.15L0.7 0.15Q0.7-0.85 0.8-1.65 0.9-2.45 1.15-3.3L1.15-3.3Q2-3.45 2.6-3.93 3.2-4.4 3.78-5.45 4.35-6.5 5.15-8.45L5.15-8.45 15.7-33.85Q16.55-34.05 17.28-34.08 18-34.1 19-34.1ZM8.45-12L20.85-12 21.75-9Q18.4-9 14.78-8.9 11.15-8.8 7.7-8.45L7.7-8.45 8.45-12ZM44.46 0.48L44.46 0.48Q41.94 0.48 40.47-0.99 39-2.46 39-4.86L39-4.86Q39-7.32 40.68-8.73 42.36-10.14 44.82-10.14L44.82-10.14Q47.22-10.14 48.63-8.58 50.04-7.02 50.04-5.16L50.04-5.16Q50.04-2.76 48.54-1.14 47.04 0.48 44.46 0.48ZM52.75-33.95L52.75-33.95Q53.7-33.9 55.25-33.85 56.8-33.8 58.1-33.8L58.1-33.8Q59.4-33.8 61.3-33.83 63.2-33.85 65.12-33.88 67.05-33.9 68.45-33.9L68.45-33.9Q73.2-33.9 76.07-33.1 78.95-32.3 80.27-30.6 81.6-28.9 81.6-26.25L81.6-26.25Q81.6-23.3 79.57-21.15 77.55-19 73.8-18.45L73.8-18.45Q77.15-18.25 79.32-17.23 81.5-16.2 82.55-14.33 83.6-12.45 83.6-9.75L83.6-9.75Q83.6-6.9 82.12-4.7 80.65-2.5 77.4-1.25 74.15 0 68.75 0L68.75 0Q66.75 0 64.62 0 62.5 0 60.4 0.03 58.3 0.05 56.37 0.08 54.45 0.1 52.75 0.15L52.75 0.15Q52.75-0.85 52.82-1.78 52.9-2.7 53.1-3.3L53.1-3.3Q54.45-3.4 55.17-3.83 55.9-4.25 56.17-5.38 56.45-6.5 56.45-8.7L56.45-8.7 56.45-25.3Q56.45-27.4 56.17-28.45 55.9-29.5 55.17-29.93 54.45-30.35 53.05-30.5L53.05-30.5Q52.9-31.15 52.82-32.18 52.75-33.2 52.75-33.95ZM64.4-29.75L65.1-31.95 65.1-8.4Q65.1-6.25 65.55-5.15 66-4.05 66.85-3.68 67.7-3.3 68.85-3.3L68.85-3.3Q71.15-3.3 72.57-4.85 74-6.4 74-9.15L74-9.15Q74-11.1 73.45-12.38 72.9-13.65 71.87-14.38 70.85-15.1 69.42-15.43 68-15.75 66.3-15.75L66.3-15.75 63.45-15.75 63.45-19.1 66.85-19.1Q68.9-19.1 70.22-19.8 71.55-20.5 72.2-21.8 72.85-23.1 72.85-24.9L72.85-24.9Q72.85-26.75 72.07-28 71.3-29.25 70.07-29.85 68.85-30.45 67.35-30.45L67.35-30.45Q66.5-30.45 65.82-30.3 65.15-30.15 64.4-29.75L64.4-29.75ZM94.15 0.48L94.15 0.48Q91.63 0.48 90.16-0.99 88.69-2.46 88.69-4.86L88.69-4.86Q88.69-7.32 90.37-8.73 92.05-10.14 94.51-10.14L94.51-10.14Q96.91-10.14 98.32-8.58 99.73-7.02 99.73-5.16L99.73-5.16Q99.73-2.76 98.23-1.14 96.73 0.48 94.15 0.48ZM114.24 0.45L114.24 0.45Q110.99 0.45 108.09-0.33 105.19-1.1 102.49-2.5L102.49-2.5Q102.89-4.5 103.02-6.6 103.14-8.7 103.14-10.6L103.14-10.6Q104.34-10.95 105.74-11.05 107.14-11.15 108.39-11.15L108.39-11.15Q108.64-8.15 109.19-6.43 109.74-4.7 110.97-3.95 112.19-3.2 114.24-3.2L114.24-3.2Q117.04-3.2 118.24-4.38 119.44-5.55 119.44-7.05L119.44-7.05Q119.44-8.55 118.27-9.6 117.09-10.65 115.24-11.53 113.39-12.4 111.32-13.38 109.24-14.35 107.42-15.73 105.59-17.1 104.39-19.15 103.19-21.2 103.19-24.25L103.19-24.25Q103.19-27.8 104.79-29.98 106.39-32.15 109.02-33.2 111.64-34.25 114.84-34.25L114.84-34.25Q116.74-34.25 118.62-33.95 120.49-33.65 122.12-33.18 123.74-32.7 124.69-32.05L124.69-32.05Q124.69-30.1 124.74-28.03 124.79-25.95 124.99-24.75L124.99-24.75Q124.09-24.2 122.62-23.98 121.14-23.75 119.99-23.75L119.99-23.75Q119.59-26.5 118.82-28 118.04-29.5 116.92-30.1 115.79-30.7 114.34-30.7L114.34-30.7Q112.49-30.7 111.27-29.85 110.04-29 110.04-27.3L110.04-27.3Q110.04-25.6 111.29-24.45 112.54-23.3 114.49-22.38 116.44-21.45 118.64-20.48 120.84-19.5 122.79-18.13 124.74-16.75 125.99-14.73 127.24-12.7 127.24-9.7L127.24-9.7Q127.24-6.7 125.77-4.4 124.29-2.1 121.42-0.83 118.54 0.45 114.24 0.45Z" opacity="1" transform="matrix(1,0,0,1,0,0)" fill="#1d4aaa" class="undefined-text-0" data-fill-palette-color="primary" id="text-0"></path></svg></g></svg></g></svg></g></svg></g><g></g></svg></g></svg></g></svg></g></svg></g></svg><rect width="320" height="360" fill="none" stroke="none" visibility="hidden"></rect></g></svg></g></svg>